<?xml version="1.0" encoding="utf8" standalone="no"?>
<svg viewBox="0 0 630.48486 803.63403" xmlns="http://www.w3.org/2000/svg" xmlns:xlink="http://www.w3.org/1999/xlink">
<defs>
<filter id="filter5383">
<feGaussianBlur stdDeviation="2.48738"/>
</filter>
<filter id="filter5403">
<feGaussianBlur stdDeviation=".595"/>
</filter>
<filter id="filter5305">
<feGaussianBlur stdDeviation="1.54665"/>
</filter>
<filter id="filter5277">
<feGaussianBlur stdDeviation=".43245"/>
</filter>
<filter height="1.18922" id="filter5301" width="1.26233" x="-.13117" y="-.09461">
<feGaussianBlur stdDeviation="3.26655"/>
</filter>
<linearGradient id="linearGradient5264">
<stop offset="0" stop-color="#fff"/>
<stop offset="1" stop-color="#fff" stop-opacity="0"/>
</linearGradient>
<linearGradient gradientTransform="matrix(.60945,0,0,.52048,182.31937,97.04231)" gradientUnits="userSpaceOnUse" id="linearGradient11469" x1="310.72882" x2="311.25723" xlink:href="#linearGradient5264" y1="716.16754" y2="631.46857"/>
<linearGradient gradientTransform="matrix(.60945,0,0,.52048,182.31937,97.04231)" gradientUnits="userSpaceOnUse" id="linearGradient11471" x1="310.72882" x2="309.22992" xlink:href="#linearGradient5264" y1="716.16754" y2="653.48737"/>
</defs>
<g transform="matrix(7.59789,0,0,7.59789,-721.77392,-330.96598)">
<path d="m132.19745-9.75313c0,37.38953-37.68296,67.69973-84.16724,67.69973s-84.16724-30.3102-84.16724-67.69973 37.68296-67.69973 84.16724-67.69973 84.16724,30.3102 84.16724,67.69973z" fill="#500" transform="matrix(.45932,0,0,.44737,113.30922,88.83727)"/>
<path d="m72.27404-47.71987c0,9.60001-7.78235,17.38236-17.38236,17.38236s-17.38236-7.78235-17.38236-17.38236 7.78235-17.38236 17.38236-17.38236 17.38236,7.78235 17.38236,17.38236z" fill="#500" transform="matrix(-.82414,0,0,.82414,208.89102,100.93417)"/>
<path d="m72.27404-47.71987c0,9.60001-7.78235,17.38236-17.38236,17.38236s-17.38236-7.78235-17.38236-17.38236 7.78235-17.38236 17.38236-17.38236 17.38236,7.78235 17.38236,17.38236z" fill="#a40" transform="matrix(-.67768,0,0,.67768,200.85155,93.9451)"/>
<path d="m69.52945-44.51786c0,5.81053-4.71037,10.5209-10.5209,10.5209s-10.52091-4.71037-10.52091-10.5209 4.71037-10.52091 10.52091-10.52091 10.5209,4.71037 10.5209,10.52091z" fill="#ffb380" stroke="#800000" stroke-width=".05" transform="matrix(-.67768,0,0,.67768,200.85156,93.9451)"/>
<path d="m72.27404-47.71987c0,9.60001-7.78235,17.38236-17.38236,17.38236s-17.38236-7.78235-17.38236-17.38236 7.78235-17.38236 17.38236-17.38236 17.38236,7.78235 17.38236,17.38236z" fill="#500" transform="matrix(.82414,0,0,.82414,68.28139,97.21334)"/>
<path d="m114.09969,107.58162c0,0-12.95574,29.19878-8.70162,33.45291s13.9226,5.0276 17.01651,2.32043 1.16021-7.34804 1.16021-7.34804c4.89913,1.99945 9.00952,1.63272 12.95575.77348 0,0-.96685,8.50825 2.70718,10.24858s17.40324,2.5138 18.37009-3.09391-2.15287-13.86379-3.33805-20.74934c5.29867.15234 5.79801,2.84978 9.85229,2.27507 4.06137-.57572 10.05521-5.80108 9.4751-13.92259s-24.11086-6.85713-24.11086-6.85713l-38.86724-3.28728c0,0-11.72143,2.03032-13.72923,4.4475-2.54183,3.06008.70902,15.9852 6.18782,15.46955 3.73803-.35182 6.38119-2.5138 6.38119-2.5138z" fill="#a40" stroke="#500" stroke-width="2"/>
<path d="m146.90511,121.89661c0,6.56677-6.41796,11.8902-14.33492,11.8902s-14.33491-5.32343-14.33491-11.8902 6.41796-11.89021 14.33491-11.89021 14.33492,5.32343 14.33492,11.89021z" fill="#fff" transform="matrix(1.29457,0,0,1.14953,-40.82966,-19.78326)"/>
<path d="m72.27404-47.71987c0,9.60001-7.78235,17.38236-17.38236,17.38236s-17.38236-7.78235-17.38236-17.38236 7.78235-17.38236 17.38236-17.38236 17.38236,7.78235 17.38236,17.38236z" fill="#a40" transform="matrix(.67768,0,0,.67768,76.32085,90.22427)"/>
<path d="m69.52945-44.51786c0,5.81053-4.71037,10.5209-10.5209,10.5209s-10.52091-4.71037-10.52091-10.5209 4.71037-10.52091 10.52091-10.52091 10.5209,4.71037 10.5209,10.52091z" fill="#ffb380" stroke="#800000" stroke-width=".05" transform="matrix(.67768,0,0,.67768,76.32085,90.22427)"/>
<path d="m137.9117,97.46875c-12.19078,0-22.07895,5.90593-22.07895,13.20547s9.88817,13.23569 22.07895,13.23569c5.74846,0 10.96809-1.31914 14.89592-3.47512 .14564-5.20924 1.69916-11.36417 7.56372-13.76258-2.13847-5.9599-11.86716-9.20346-22.45964-9.20346z" opacity=".2"/>
<path d="m132.19745-9.75313c0,37.38953-37.68296,67.69973-84.16724,67.69973s-84.16724-30.3102-84.16724-67.69973 37.68296-67.69973 84.16724-67.69973 84.16724,30.3102 84.16724,67.69973z" fill="#a40" transform="matrix(.42962,0,0,.41845,114.73567,88.55515)"/>
<path d="m343.67216,636.01624c0,22.88161-13.37976,41.43083-29.88453,41.43083s-29.88454-18.54922-29.88454-41.43083 13.37976-41.43084 29.88454-41.43084 29.88453,18.54922 29.88453,41.43084z" fill="#fff" filter="url(#filter5383)" opacity=".15" transform="matrix(.30852,0,0,.23481,22.10288,-68.47057)"/>
<path d="m343.67216,636.01624c0,22.88161-13.37976,41.43083-29.88453,41.43083s-29.88454-18.54922-29.88454-41.43083 13.37976-41.43084 29.88454-41.43084 29.88453,18.54922 29.88453,41.43084z" fill="#80e5ff" stroke="#000" stroke-width="3.57292" transform="matrix(.24296,0,0,.19364,42.29606,-42.36454)"/>
<path d="m373.5625,406.49892c-10.05881,0-18.21875,9.65738-18.21875,21.56675s8.15994,21.56674 18.21875,21.56674 18.21875-9.65738 18.21875-21.56674-8.15994-21.56675-18.21875-21.56675zm-.3125,2.83028c9.27422,0 16.8125,8.2845 16.8125,18.48174s-7.53828,18.45344-16.8125,18.45344-16.78125-8.25619-16.78125-18.45344 7.50703-18.48174 16.78125-18.48174z" fill="url(#linearGradient11469)" filter="url(#filter5403)" opacity=".5" transform="matrix(.30673,0,0,.22077,3.95066,-11.22776)"/>
<path d="m343.67216,636.01624c0,22.88161-13.37976,41.43083-29.88453,41.43083s-29.88454-18.54922-29.88454-41.43083 13.37976-41.43084 29.88454-41.43084 29.88453,18.54922 29.88453,41.43084z" filter="url(#filter5305)" transform="matrix(.14281,0,0,.12655,73.23208,1.21977)"/>
<path d="m343.67216,636.01624c0,22.88161-13.37976,41.43083-29.88453,41.43083s-29.88454-18.54922-29.88454-41.43083 13.37976-41.43084 29.88454-41.43084 29.88453,18.54922 29.88453,41.43084z" fill="#fff" filter="url(#filter5301)" transform="matrix(.08642,0,0,.0716,88.86537,32.79876)"/>
<path d="m373.5625,406.49892c-10.05881,0-18.21875,9.65738-18.21875,21.56675s8.15994,21.56674 18.21875,21.56674 18.21875-9.65738 18.21875-21.56674-8.15994-21.56675-18.21875-21.56675zm-.3125,2.83028c9.27422,0 16.8125,8.2845 16.8125,18.48174s-7.53828,18.45344-16.8125,18.45344-16.78125-8.25619-16.78125-18.45344 7.50703-18.48174 16.78125-18.48174z" fill="url(#linearGradient11471)" filter="url(#filter5277)" transform="matrix(.30673,0,0,-.23062,3.85591,176.40848)"/>
<path d="m119.8965,99.38726c7.42781,8.6145 14.35343,6.47217 19.74758,0" fill="none" stroke="#500" stroke-width="1.78993"/>
<path d="m97.34408,110.4509c0,0 2.22247,7.55638 5.77841,7.11189s7.8405-4.96511 7.8405-4.96511l-2.31917,5.73156c0,0-3.96899,2.44962-6.26714,1.96728-2.29034-.32039-5.21288-4.95595-5.0326-9.84562z" fill-opacity=".2"/>
<path d="m135.375,56.15625c-1.01151,0-2.0095.02994-3,.09375 16.58247,1.13132 29.625,12.74396 29.625,26.9375 0,14.94252-14.45761,27.0625-32.28125,27.0625-7.51104,0-14.42256-2.14249-19.90625-5.75 6.54363,5.12649 15.57725,8.3125 25.5625,8.3125 19.9705,0 36.15625-12.69822 36.15625-28.34375s-16.18575-28.3125-36.15625-28.3125z" opacity=".1"/>
<path d="m343.67216,636.01624c0,22.88161-13.37976,41.43083-29.88453,41.43083s-29.88454-18.54922-29.88454-41.43083 13.37976-41.43084 29.88454-41.43084 29.88453,18.54922 29.88453,41.43084z" fill="#fff" filter="url(#filter5383)" opacity=".15" transform="matrix(.30852,0,0,.23481,44.88365,-67.91943)"/>
<path d="m343.67216,636.01624c0,22.88161-13.37976,41.43083-29.88453,41.43083s-29.88454-18.54922-29.88454-41.43083 13.37976-41.43084 29.88454-41.43084 29.88453,18.54922 29.88453,41.43084z" fill="#80e5ff" stroke="#000" stroke-width="3.57292" transform="matrix(.24296,0,0,.19364,65.07682,-41.81339)"/>
<path d="m373.5625,406.49892c-10.05881,0-18.21875,9.65738-18.21875,21.56675s8.15994,21.56674 18.21875,21.56674 18.21875-9.65738 18.21875-21.56674-8.15994-21.56675-18.21875-21.56675zm-.3125,2.83028c9.27422,0 16.8125,8.2845 16.8125,18.48174s-7.53828,18.45344-16.8125,18.45344-16.78125-8.25619-16.78125-18.45344 7.50703-18.48174 16.78125-18.48174z" fill="url(#linearGradient11469)" filter="url(#filter5403)" opacity=".5" transform="matrix(.30673,0,0,.22077,26.73142,-10.67661)"/>
<path d="m343.67216,636.01624c0,22.88161-13.37976,41.43083-29.88453,41.43083s-29.88454-18.54922-29.88454-41.43083 13.37976-41.43084 29.88454-41.43084 29.88453,18.54922 29.88453,41.43084z" filter="url(#filter5305)" transform="matrix(.14281,0,0,.12655,96.01284,1.77091)"/>
<path d="m343.67216,636.01624c0,22.88161-13.37976,41.43083-29.88453,41.43083s-29.88454-18.54922-29.88454-41.43083 13.37976-41.43084 29.88454-41.43084 29.88453,18.54922 29.88453,41.43084z" fill="#fff" filter="url(#filter5301)" transform="matrix(.08642,0,0,.0716,111.64613,33.34991)"/>
<path d="m373.5625,406.49892c-10.05881,0-18.21875,9.65738-18.21875,21.56675s8.15994,21.56674 18.21875,21.56674 18.21875-9.65738 18.21875-21.56674-8.15994-21.56675-18.21875-21.56675zm-.3125,2.83028c9.27422,0 16.8125,8.2845 16.8125,18.48174s-7.53828,18.45344-16.8125,18.45344-16.78125-8.25619-16.78125-18.45344 7.50703-18.48174 16.78125-18.48174z" fill="url(#linearGradient11471)" filter="url(#filter5277)" transform="matrix(.30673,0,0,-.23062,26.63667,176.95963)"/>
<path d="m153.05497,122.39761c0,0 3.47104-.29439 5.31586.55706s3.83155,1.70292 4.96683,1.70292 4.13634-1.20554 6.24401-3.54774c2.45564-2.72889 4.15316-7.90354 2.68571-10.85033-1.45739-2.92659-7.55027-3.55835-7.51063-3.62442 0,0 6.36298,2.15068 6.22107,5.13077s-4.31645,8.09494-6.22107,9.20207c-2.47768,1.44024-3.38848-.4601-7.30349-1.0154-1.67542-.23764-4.96683-.0238-4.96683-.0238z" opacity=".2"/>
<path d="m133.52286,95.68493c0,1.772-2.15474,3.2085-4.81275,3.2085s-4.81274-1.43649-4.81274-3.2085 2.15474-3.2085 4.81274-3.2085 4.81275,1.43649 4.81275,3.2085z" fill="#2b0000" transform="matrix(1.51282,0,0,1.51282,-65.44077,-51.455)"/>
<path d="m133.52286,95.68493c0,1.772-2.15474,3.2085-4.81275,3.2085s-4.81274-1.43649-4.81274-3.2085 2.15474-3.2085 4.81274-3.2085 4.81275,1.43649 4.81275,3.2085z" fill="#500" transform="matrix(1.23673,0,0,1.23673,-31.23355,-25.58911)"/>
<path d="m113.5453,126.91463c0,0 6.72874,7.35659 16.24655,7.76224 9.09939.38782 16.96861-3.61035 16.96861-3.61035s-7.13698,5.55927-16.95864,5.52417c-2.35364-.008-7.77221-1.91382-7.77221-1.91382 1.56242,2.21019 2.04472,5.98258-.32592,8.08983-.80482.65474-5.0083,1.74882-7.69037,1.04301 2.43772-1.76523 5.30402-2.11618 5.92195-9.8867-2.88626-2.48738-4.36374-4.693-6.38997-7.00838z" fill-opacity=".2"/>
<path d="m69.52945-44.51786c0,5.81053-4.71037,10.5209-10.5209,10.5209s-10.52091-4.71037-10.52091-10.5209 4.71037-10.52091 10.52091-10.52091 10.5209,4.71037 10.5209,10.52091z" fill-opacity=".15" stroke="#800000" stroke-width=".05" transform="matrix(-.43388,0,0,.43388,138.43826,114.45894)"/>
<path d="m69.52945-44.51786c0,5.81053-4.71037,10.5209-10.5209,10.5209s-10.52091-4.71037-10.52091-10.5209 4.71037-10.52091 10.52091-10.52091 10.5209,4.71037 10.5209,10.52091z" fill-opacity=".15" stroke="#800000" stroke-width=".05" transform="matrix(-.43388,0,0,.43388,174.10294,115.29136)"/>
<path d="m150.32667,110.43526c0,0 5.84405,25.36719 6.27826,27.24877s.0627,5.60718-.15253,6.42323c-.58285,2.21004-5.05798,3.41885-6.36061,3.27412s-7.81577-.14474-8.68419-.57895 11.28945.86842 11.28945-3.32894-3.36794-32.69395-3.36794-32.69395z" fill-opacity=".2"/>
</g>
</svg>
